<svg t="1698907265900" class="icon" viewBox="0 0 1024 1024" version="1.1" xmlns="http://www.w3.org/2000/svg" p-id="10480" width="200" height="200"><path d="M 847.514 453.99 c 0 -194.304 -145.306 -351.898 -324.762 -351.898 S 198.042 259.482 198.042 453.786 v 221.645 c 0 36.096 29.2352 65.3312 65.3312 65.3312 h 519.885 c 36.1984 0 65.4848 -29.44 65.3312 -65.6384 l -1.0752 -221.133 Z" fill="#8e6355" p-id="10481"></path><path d="M 472.832 666.726 h 102.349 v 115.354 H 472.832 Z" fill="#f9dbd2" p-id="10482"></path><path d="M 270.438 477.184 m -61.2352 0 a 61.2352 61.2352 0 1 0 122.47 0 a 61.2352 61.2352 0 1 0 -122.47 0 Z" fill="#f9dad2" p-id="10483"></path><path d="M 270.438 477.184 m -30.464 0 a 30.464 30.464 0 1 0 60.928 0 a 30.464 30.464 0 1 0 -60.928 0 Z" fill="#f4c6bd" p-id="10484"></path><path d="M 774.349 477.184 m -61.2352 0 a 61.2352 61.2352 0 1 0 122.47 0 a 61.2352 61.2352 0 1 0 -122.47 0 Z" fill="#f9dad2" p-id="10485"></path><path d="M 774.349 477.184 m -30.464 0 a 30.464 30.464 0 1 0 60.928 0 a 30.464 30.464 0 1 0 -60.928 0 Z" fill="#f4c6bd" p-id="10486"></path><path d="M 285.133 429.466 a 260.147 237.261 90 1 0 474.522 0 a 260.147 237.261 90 1 0 -474.522 0 Z" fill="#ffe7de" p-id="10487"></path><path d="M 270.438 402.278 C 270.438 254.464 383.232 136.192 522.394 136.192 s 251.955 118.323 251.955 266.086 H 270.438 Z" fill="#8e6355" p-id="10488"></path><path d="M 380.365 456.704 c -39.168 0 -71.936 27.4432 -80.1792 64.1536 c 12.7488 37.2736 33.1264 70.5024 58.9824 97.4336 c 6.7584 1.792 13.8752 2.7648 21.1968 2.7648 c 45.3632 0 82.176 -36.8128 82.176 -82.176 c -0.0512 -45.4144 -36.8128 -82.176 -82.176 -82.176 Z M 746.394 515.277 C 736.256 481.382 704.87 456.704 667.648 456.704 c -45.3632 0 -82.176 36.8128 -82.176 82.176 S 622.285 621.056 667.648 621.056 c 5.7856 0 11.4688 -0.6144 16.9472 -1.7408 c 27.648 -28.416 49.0496 -64 61.7984 -104.038 Z" fill="#fddbdb" p-id="10489"></path><path d="M 418.458 467.61 m -26.1632 0 a 26.1632 26.1632 0 1 0 52.3264 0 a 26.1632 26.1632 0 1 0 -52.3264 0 Z" fill="#8e6355" p-id="10490"></path><path d="M 408.883 450.355 c -2.2016 0.4096 -4.4544 0.256 -6.5536 -0.1536 c -2.1504 -0.4608 -4.1472 -1.2288 -6.0416 -2.2528 c -1.8944 -1.024 -3.6352 -2.2528 -5.1712 -3.7888 c -1.536 -1.4848 -2.8672 -3.2256 -3.6864 -5.2736 c -0.1024 -0.256 0 -0.5632 0.3072 -0.6656 c 0.256 -0.1024 0.5632 0 0.6656 0.256 c 0.8192 1.792 2.1504 3.3792 3.6352 4.7104 c 1.4848 1.3312 3.2256 2.4576 5.0176 3.328 c 1.792 0.8704 3.7376 1.536 5.6832 1.8432 c 1.9456 0.3072 3.9424 0.3584 5.7856 -0.1024 c 0.5632 -0.1536 1.1264 0.2048 1.28 0.8192 c 0.0512 0.5632 -0.3072 1.1264 -0.9216 1.28 Z M 402.278 458.24 c -1.9968 0.1536 -4.0448 0.1536 -6.0928 -0.0512 s -4.0448 -0.5632 -5.9904 -1.28 c -1.9456 -0.6656 -3.7888 -1.6896 -5.376 -2.9696 c -1.5872 -1.28 -2.9184 -2.8672 -3.9424 -4.608 c -0.1536 -0.256 -0.0512 -0.5632 0.2048 -0.7168 c 0.256 -0.1536 0.512 -0.0512 0.6656 0.1536 c 1.0752 1.5872 2.4064 2.9696 3.8912 4.0448 c 1.536 1.0752 3.2256 1.8944 5.0688 2.4064 c 3.6352 1.024 7.4752 0.9728 11.2128 0.4608 c 0.7168 -0.1024 1.3312 0.4096 1.4336 1.0752 c 0.1024 0.7168 -0.4096 1.3312 -1.0752 1.4336 c 0.0512 0 0 0.0512 0 0.0512 Z" fill="#8e6355" p-id="10491"></path><path d="M 626.33 467.61 m -26.1632 0 a 26.1632 26.1632 0 1 0 52.3264 0 a 26.1632 26.1632 0 1 0 -52.3264 0 Z" fill="#8e6355" p-id="10492"></path><path d="M 636.314 448.307 c 1.8944 0.4096 3.84 0.4096 5.7856 0.1024 c 1.9456 -0.3072 3.84 -0.9728 5.6832 -1.8432 c 1.792 -0.8704 3.4816 -1.9968 5.0176 -3.328 c 1.4848 -1.3312 2.816 -2.9184 3.6352 -4.7104 c 0.1024 -0.256 0.4096 -0.3584 0.6656 -0.256 c 0.256 0.1024 0.3584 0.4096 0.256 0.6656 c -0.8192 2.048 -2.1504 3.7888 -3.6864 5.2736 c -1.536 1.4848 -3.2768 2.7648 -5.1712 3.7888 c -1.8944 1.024 -3.8912 1.792 -6.0416 2.2528 c -2.0992 0.4608 -4.352 0.5632 -6.5536 0.1536 c -0.5632 -0.1024 -0.9728 -0.6656 -0.8704 -1.2288 s 0.6656 -0.9728 1.28 -0.8704 c -0.0512 0 -0.0512 0 0 0 Z M 642.765 455.68 c 3.7376 0.512 7.6288 0.5632 11.2128 -0.4608 c 1.792 -0.512 3.5328 -1.28 5.0688 -2.4064 c 1.536 -1.0752 2.8672 -2.4576 3.8912 -4.0448 c 0.1536 -0.256 0.4608 -0.3072 0.7168 -0.1536 c 0.2048 0.1536 0.3072 0.4608 0.1536 0.6656 c -1.024 1.7408 -2.3552 3.328 -3.9424 4.608 c -1.5872 1.28 -3.4304 2.2528 -5.376 2.9696 c -1.9456 0.6656 -3.9424 1.0752 -5.9904 1.28 c -2.048 0.2048 -4.0448 0.1536 -6.0928 0.0512 c -0.7168 -0.0512 -1.2288 -0.6656 -1.1776 -1.3824 s 0.6656 -1.2288 1.3824 -1.1776 c 0.1024 0.0512 0.1024 0.0512 0.1536 0.0512 Z M 314.88 384.87 l -14.6944 313.805 l -36.096 -313.805 Z M 730.982 384.87 l 14.6944 313.805 l 36.096 -313.805 Z" fill="#8e6355" p-id="10493"></path><path d="M 565.299 538.368 c 6.2976 0 11.0592 5.8368 9.6256 11.9808 c -5.4272 23.552 -26.4704 40.96 -51.6096 40.96 c -25.1392 0 -46.1824 -17.408 -51.6096 -40.96 c -1.4336 -6.144 3.328 -11.9808 9.6256 -11.9808 h 83.968 Z" fill="#ff8d8d" p-id="10494"></path><path d="M 495.514 538.317 c 1.4848 10.9056 13.3632 19.1488 27.8016 19.1488 s 26.3168 -8.2944 27.8016 -19.1488 H 495.514 Z" fill="#ffffff" p-id="10495"></path><path d="M 617.318 236.902 l 24.832 -37.8368 c 8.9088 -13.568 29.184 -12.4416 36.5056 2.0992 l 20.3264 40.3968 c 7.3216 14.5408 -3.84 31.488 -20.0704 30.5664 l -45.1584 -2.56 c -16.1792 -0.9216 -25.344 -19.0464 -16.4352 -32.6656 Z M 716.186 331.11 l -15.104 -37.9392 c -6.3488 -16.0256 6.9632 -32.9216 24.064 -30.4128 l 40.3968 5.888 c 17.0496 2.5088 25.0368 22.528 14.336 36.0448 l -25.2928 32.0512 c -10.752 13.5168 -32.0512 10.3936 -38.4 -5.632 Z" fill="#fcaecc" p-id="10496"></path><path d="M 710.861 286.515 l -25.6 -1.4848 c -3.584 -0.2048 -6.3488 -3.2768 -6.144 -6.8608 l 1.4848 -25.6 c 0.2048 -3.584 3.2768 -6.3488 6.8608 -6.144 l 25.6 1.4848 c 3.584 0.2048 6.3488 3.2768 6.144 6.8608 l -1.4848 25.6 c -0.2048 3.584 -3.2768 6.3488 -6.8608 6.144 Z" fill="#ffc2d6" p-id="10497"></path><path d="M 696.73 844.646 l -46.9504 -73.4208 c -11.264 -23.0912 -38.7584 -38.0928 -69.3248 -38.0928 h -5.7856 c -7.5264 8.704 -27.3408 15.2576 -50.6368 15.2576 c -23.296 0 -43.1616 -6.5536 -50.6368 -15.2576 h -9.0624 c -30.6176 0 -58.112 14.8992 -69.3248 37.9392 l -46.9504 73.728 c -14.7968 23.2448 1.8432 53.76 29.3888 53.76 h 289.946 c 27.4944 0 44.1856 -30.6688 29.3376 -53.9136 Z" fill="#fcaecc" p-id="10498"></path></svg>